<svg width="48" height="54" viewBox="0 0 48 54" fill="none" xmlns="http://www.w3.org/2000/svg">
<path d="M42.8434 5.72266C26.9545 10.0332 17.9494 11.0572 1.38538 5.72266L1.38538 44.2595C17.9677 49.3616 26.9478 48.0968 42.8434 44.2595L42.8434 5.72266Z" fill="#CCCDCE" stroke="#4F4F4F" stroke-opacity="0.2"/>
<ellipse cx="22.1144" cy="5.72208" rx="20.729" ry="4.93009" fill="#BBBBBC"/>
<path d="M42.3434 5.72208C42.3434 6.10454 42.001 6.62517 40.9693 7.20527C39.9786 7.76234 38.5119 8.28042 36.6563 8.72174C32.953 9.60252 27.8114 10.1522 22.1144 10.1522C16.4173 10.1522 11.2757 9.60252 7.57245 8.72174C5.71685 8.28042 4.25012 7.76234 3.25943 7.20527C2.22779 6.62517 1.88538 6.10454 1.88538 5.72208C1.88538 5.33961 2.22779 4.81899 3.25943 4.23889C4.25012 3.68182 5.71685 3.16374 7.57245 2.72241C11.2757 1.84164 16.4173 1.29199 22.1144 1.29199C27.8114 1.29199 32.953 1.84164 36.6563 2.72241C38.5119 3.16374 39.9786 3.68182 40.9693 4.23889C42.001 4.81899 42.3434 5.33961 42.3434 5.72208Z" stroke="#4F4F4F" stroke-opacity="0.2"/>
<path d="M20.6598 5.22089C20.6598 3.41238 22.2742 2.03085 24.061 2.31035L33.3144 3.75778C34.1942 3.89541 34.8428 4.65331 34.8428 5.54388V5.54388C34.8428 6.48165 34.1257 7.26373 33.1915 7.34492L23.8608 8.15577C22.1396 8.30534 20.6598 6.94853 20.6598 5.22089V5.22089Z" fill="#D9D9D9"/>
<path d="M23.9837 2.80434L33.2371 4.25177C33.8736 4.35134 34.3428 4.89962 34.3428 5.54388C34.3428 6.22229 33.824 6.78806 33.1482 6.84679L23.8175 7.65764C22.3885 7.78183 21.1598 6.65531 21.1598 5.22089C21.1598 3.71933 22.5002 2.57228 23.9837 2.80434Z" stroke="#4F4F4F" stroke-opacity="0.2"/>
<ellipse cx="24.6601" cy="5.22903" rx="2.182" ry="1.47903" fill="#BBBBBC"/>
<path d="M26.3421 5.22903C26.3421 5.42213 26.2269 5.65464 25.9225 5.86098C25.6209 6.06543 25.1761 6.20805 24.6601 6.20805C24.1442 6.20805 23.6994 6.06543 23.3978 5.86098C23.0934 5.65464 22.9781 5.42213 22.9781 5.22903C22.9781 5.03592 23.0934 4.80342 23.3978 4.59708C23.6994 4.39262 24.1442 4.25 24.6601 4.25C25.1761 4.25 25.6209 4.39262 25.9225 4.59708C26.2269 4.80342 26.3421 5.03592 26.3421 5.22903Z" stroke="#4F4F4F" stroke-opacity="0.2"/>
<path d="M1.3512 13.0176C1.3512 19.3176 42.8434 18.6328 42.8434 13.0176C42.8434 13.0176 42.8434 29.8633 42.8434 38.0807C42.8434 46.2982 1.3512 44.9286 1.3512 38.0807C1.3512 31.2329 1.3512 13.0176 1.3512 13.0176Z" fill="#08B7C4"/>
<path d="M42.7355 14.3611C42.7728 14.3228 42.8088 14.2838 42.8434 14.244V13.0176C42.8434 13.3814 42.6692 13.7245 42.3434 14.0464V14.0478V14.0739V14.1004V14.1272V14.1542V14.1816V14.2092V14.2371V14.2654V14.2939V14.3227V14.3518V14.3812V14.4108V14.4408V14.471V14.5015V14.5323V14.5634V14.5947V14.6264V14.6583V14.6904V14.7051C42.4878 14.5951 42.6191 14.4806 42.7355 14.3611Z" stroke="#4F4F4F" stroke-opacity="0.2"/>
<g filter="url(#filter0_d_447_4110)">
<path d="M42.9914 38.0225C41.8277 43.1022 35.529 46.4563 28.6197 45.2996C21.7104 44.143 17.9219 37.7861 19.0856 32.7063C19.8758 29.257 22.9042 26.8818 26.93 26.0746C29.8207 25.495 34.6929 26.5212 37.4584 27.2805V27.2805C43.4273 28.9195 44.0836 33.255 42.9914 38.0225Z" fill="url(#paint0_radial_447_4110)"/>
<path d="M42.502 37.9406C41.4261 42.637 35.4982 45.9408 28.7323 44.8082C22.0657 43.6922 18.4796 37.5696 19.575 32.7883C20.3044 29.6043 23.1096 27.3429 27.0004 26.5628C28.3557 26.291 30.2255 26.3912 32.1392 26.6686C34.0391 26.9439 35.9283 27.3854 37.2975 27.7613C40.1726 28.5508 41.6975 29.9639 42.406 31.6898C43.1252 33.4417 43.0384 35.5991 42.502 37.9406Z" stroke="#4F4F4F" stroke-opacity="0.42"/>
<path d="M32.2374 22.5082C32.2316 23.9508 31.7128 27.3512 30.8765 27.4274C30.0403 27.5036 29.2032 24.2268 29.209 22.7841C29.2147 21.3414 29.8974 20.1101 30.7336 20.0339C31.5699 19.9577 32.2432 21.0655 32.2374 22.5082Z" fill="#62AF4A"/>
<path d="M32.2374 22.5082C32.2316 23.9508 31.7128 27.3512 30.8765 27.4274C30.0403 27.5036 29.2032 24.2268 29.209 22.7841C29.2147 21.3414 29.8974 20.1101 30.7336 20.0339C31.5699 19.9577 32.2432 21.0655 32.2374 22.5082Z" fill="#62AF4A"/>
<path d="M32.2374 22.5082C32.2316 23.9508 31.7128 27.3512 30.8765 27.4274C30.0403 27.5036 29.2032 24.2268 29.209 22.7841C29.2147 21.3414 29.8974 20.1101 30.7336 20.0339C31.5699 19.9577 32.2432 21.0655 32.2374 22.5082Z" stroke="#4F4F4F" stroke-opacity="0.42"/>
<path d="M36.5825 26.0376C34.8731 27.0212 30.7935 28.4583 30.6196 27.052C30.4457 25.6457 34.2432 21.9287 35.9526 20.9451C37.662 19.9615 39.1887 20.3042 39.3627 21.7104C39.5366 23.1167 38.2918 25.054 36.5825 26.0376Z" fill="#62AF4A"/>
<path d="M36.5825 26.0376C34.8731 27.0212 30.7935 28.4583 30.6196 27.052C30.4457 25.6457 34.2432 21.9287 35.9526 20.9451C37.662 19.9615 39.1887 20.3042 39.3627 21.7104C39.5366 23.1167 38.2918 25.054 36.5825 26.0376Z" fill="#62AF4A"/>
<path d="M36.5825 26.0376C34.8731 27.0212 30.7935 28.4583 30.6196 27.052C30.4457 25.6457 34.2432 21.9287 35.9526 20.9451C37.662 19.9615 39.1887 20.3042 39.3627 21.7104C39.5366 23.1167 38.2918 25.054 36.5825 26.0376Z" stroke="#4F4F4F" stroke-opacity="0.42"/>
</g>
<defs>
<filter id="filter0_d_447_4110" x="14.8774" y="20.0303" width="32.5496" height="33.498" filterUnits="userSpaceOnUse" color-interpolation-filters="sRGB">
<feFlood flood-opacity="0" result="BackgroundImageFix"/>
<feColorMatrix in="SourceAlpha" type="matrix" values="0 0 0 0 0 0 0 0 0 0 0 0 0 0 0 0 0 0 127 0" result="hardAlpha"/>
<feOffset dy="4"/>
<feGaussianBlur stdDeviation="2"/>
<feComposite in2="hardAlpha" operator="out"/>
<feColorMatrix type="matrix" values="0 0 0 0 0 0 0 0 0 0 0 0 0 0 0 0 0 0 0.25 0"/>
<feBlend mode="normal" in2="BackgroundImageFix" result="effect1_dropShadow_447_4110"/>
<feBlend mode="normal" in="SourceGraphic" in2="effect1_dropShadow_447_4110" result="shape"/>
</filter>
<radialGradient id="paint0_radial_447_4110" cx="0" cy="0" r="1" gradientUnits="userSpaceOnUse" gradientTransform="translate(36.7019 31.6474) rotate(124.393) scale(10.0616 11.3872)">
<stop stop-color="#FFD6CF"/>
<stop offset="0.609375" stop-color="#FF8879"/>
<stop offset="1" stop-color="#FF5F66"/>
</radialGradient>
</defs>
</svg>
