<svg width="149" height="66" viewBox="0 0 149 66" fill="none" xmlns="http://www.w3.org/2000/svg">
<path d="M132 15.0937C116.111 19.4043 107.106 20.4282 90.542 15.0938V53.6306C107.124 58.7327 116.104 57.4679 132 53.6306V15.0937Z" fill="#CCCDCE" stroke="#4F4F4F" stroke-opacity="0.2"/>
<ellipse cx="111.271" cy="15.0932" rx="20.729" ry="4.93009" fill="#BBBBBC"/>
<path d="M131.5 15.0932C131.5 15.4756 131.158 15.9963 130.126 16.5764C129.135 17.1334 127.669 17.6515 125.813 18.0928C122.11 18.9736 116.968 19.5233 111.271 19.5233C105.574 19.5233 100.432 18.9736 96.7291 18.0928C94.8735 17.6515 93.4067 17.1334 92.416 16.5764C91.3844 15.9963 91.042 15.4756 91.042 15.0932C91.042 14.7107 91.3844 14.1901 92.416 13.61C93.4067 13.0529 94.8735 12.5348 96.7291 12.0935C100.432 11.2127 105.574 10.6631 111.271 10.6631C116.968 10.6631 122.11 11.2127 125.813 12.0935C127.669 12.5348 129.135 13.0529 130.126 13.61C131.158 14.1901 131.5 14.7107 131.5 15.0932Z" stroke="#4F4F4F" stroke-opacity="0.2"/>
<path d="M109.816 14.592C109.816 12.7835 111.431 11.4019 113.218 11.6814L122.471 13.1289C123.351 13.2665 123.999 14.0244 123.999 14.915C123.999 15.8527 123.282 16.6348 122.348 16.716L113.017 17.5269C111.296 17.6764 109.816 16.3196 109.816 14.592Z" fill="#D9D9D9"/>
<path d="M110.316 14.592C110.316 13.0904 111.657 11.9434 113.14 12.1754L122.394 13.6229C123.03 13.7224 123.499 14.2707 123.499 14.915C123.499 15.5934 122.981 16.1592 122.305 16.2179L112.974 17.0287C111.545 17.1529 110.316 16.0264 110.316 14.592Z" stroke="#4F4F4F" stroke-opacity="0.2"/>
<ellipse cx="113.817" cy="14.6001" rx="2.182" ry="1.47903" fill="#BBBBBC"/>
<path d="M115.499 14.6001C115.499 14.7932 115.384 15.0257 115.079 15.2321C114.777 15.4365 114.333 15.5791 113.817 15.5791C113.301 15.5791 112.856 15.4365 112.554 15.2321C112.25 15.0257 112.135 14.7932 112.135 14.6001C112.135 14.407 112.25 14.1745 112.554 13.9682C112.856 13.7637 113.301 13.6211 113.817 13.6211C114.333 13.6211 114.777 13.7637 115.079 13.9682C115.384 14.1745 115.499 14.407 115.499 14.6001Z" stroke="#4F4F4F" stroke-opacity="0.2"/>
<path d="M90.5078 22.3887C90.5078 28.6887 132 28.0039 132 22.3887C132 22.3887 132 39.2344 132 47.4518C132 55.6693 90.5078 54.2997 90.5078 47.4518C90.5078 40.604 90.5078 22.3887 90.5078 22.3887Z" fill="#08B7C4"/>
<path d="M131.892 23.7322C131.929 23.6939 131.965 23.6549 132 23.6151V22.3887C132 22.7525 131.826 23.0956 131.5 23.4175V23.4189V23.445V23.4715V23.4983V23.5253V23.5527V23.5803V23.6082V23.6365V23.665V23.6938V23.7229V23.7523V23.7819V23.8119V23.8421V23.8726V23.9034V23.9345V23.9658V23.9975V24.0294V24.0615V24.0761C131.644 23.9662 131.776 23.8517 131.892 23.7322Z" stroke="#4F4F4F" stroke-opacity="0.2"/>
<g filter="url(#filter0_d_167_3726)">
<path d="M143.418 46.3723C141.823 52.5236 134.123 56.2882 125.865 54.5025C117.606 52.7167 113.299 44.7374 114.895 38.5861C115.974 34.4227 119.685 31.6842 124.531 30.9026C128.058 30.3338 133.849 31.8446 137.184 32.9354C144.294 35.2606 144.915 40.5991 143.418 46.3723Z" fill="url(#paint0_radial_167_3726)"/>
<path d="M142.929 46.2666C141.429 52.0507 134.092 55.7704 125.99 54.0185C117.987 52.2878 113.861 44.5612 115.383 38.6918C116.397 34.781 119.891 32.15 124.595 31.3914C126.266 31.122 128.523 31.3424 130.815 31.783C133.095 32.2209 135.355 32.865 137.009 33.406C140.451 34.5316 142.255 36.3574 143.053 38.5429C143.861 40.7565 143.667 43.42 142.929 46.2666Z" stroke="#4F4F4F" stroke-opacity="0.42"/>
<path d="M133.637 28.8678C133.883 30.3499 133.785 33.9022 132.677 34.0779C131.57 34.2536 129.871 30.9862 129.625 29.504C129.379 28.0218 130.078 26.6779 131.185 26.5022C132.293 26.3265 133.391 27.3856 133.637 28.8678Z" fill="#62AF4A"/>
<path d="M133.637 28.8678C133.883 30.3499 133.785 33.9022 132.677 34.0779C131.57 34.2536 129.871 30.9862 129.625 29.504C129.379 28.0218 130.078 26.6779 131.185 26.5022C132.293 26.3265 133.391 27.3856 133.637 28.8678Z" fill="#62AF4A"/>
<path d="M133.136 28.9472C133.251 29.639 133.288 30.8517 133.161 31.9067C133.097 32.4355 132.996 32.8915 132.86 33.2121C132.792 33.3721 132.726 33.4755 132.67 33.5358C132.643 33.5645 132.623 33.5788 132.612 33.5854C132.602 33.5913 132.598 33.592 132.597 33.5921L132.597 33.5921C132.581 33.5946 132.429 33.5862 132.124 33.2946C131.849 33.032 131.551 32.6341 131.265 32.1624C130.69 31.2128 130.235 30.0844 130.126 29.4246C130.018 28.7747 130.121 28.1749 130.35 27.7341C130.58 27.2927 130.912 27.0441 131.266 26.988C131.62 26.9319 132.016 27.065 132.376 27.4128C132.736 27.7601 133.028 28.2973 133.136 28.9472Z" stroke="#4F4F4F" stroke-opacity="0.42"/>
<path d="M138.713 32.8249C136.88 33.8338 132.28 35.6324 131.723 34.7269C131.166 33.8213 134.862 30.5546 136.696 29.5456C138.529 28.5367 140.467 28.4529 141.024 29.3584C141.582 30.264 140.547 31.816 138.713 32.8249Z" fill="#62AF4A"/>
<path d="M138.713 32.8249C136.88 33.8338 132.28 35.6324 131.723 34.7269C131.166 33.8213 134.862 30.5546 136.696 29.5456C138.529 28.5367 140.467 28.4529 141.024 29.3584C141.582 30.264 140.547 31.816 138.713 32.8249Z" fill="#62AF4A"/>
<path d="M138.457 32.4078C137.573 32.8942 135.997 33.5827 134.579 34.0356C133.867 34.2627 133.224 34.4213 132.74 34.4725C132.497 34.4983 132.325 34.4932 132.218 34.4723C132.205 34.4699 132.194 34.4674 132.185 34.465C132.188 34.4501 132.192 34.4311 132.199 34.4073C132.231 34.2939 132.309 34.1339 132.444 33.9291C132.713 33.5223 133.151 33.0262 133.682 32.509C134.745 31.4732 136.09 30.4372 136.952 29.9627C137.811 29.4901 138.673 29.2473 139.356 29.2178C140.066 29.1871 140.441 29.3823 140.578 29.6043C140.714 29.8264 140.709 30.2308 140.33 30.7993C139.965 31.3468 139.316 31.9353 138.457 32.4078ZM132.141 34.4492C132.141 34.4491 132.142 34.4496 132.143 34.4507C132.141 34.4497 132.141 34.4492 132.141 34.4492Z" stroke="#4F4F4F" stroke-opacity="0.42"/>
</g>
<g filter="url(#filter1_d_167_3726)">
<path d="M22.752 32.696C22.752 34.056 22.4 35.304 21.696 36.44C20.992 37.576 19.968 38.504 18.624 39.224C17.28 39.944 15.68 40.368 13.824 40.496L12.792 46.28C12.392 48.504 11.304 49.616 9.528 49.616C8.552 49.616 7.648 49.328 6.816 48.752C6 48.176 5.344 47.296 4.848 46.112C4.352 44.928 4.104 43.472 4.104 41.744C4.104 38.496 4.624 35.744 5.664 33.488C6.72 31.216 8.128 29.52 9.888 28.4C11.664 27.264 13.616 26.696 15.744 26.696C17.248 26.696 18.52 26.96 19.56 27.488C20.616 28.016 21.408 28.736 21.936 29.648C22.48 30.544 22.752 31.56 22.752 32.696ZM14.256 38.024C17.536 37.608 19.176 35.904 19.176 32.912C19.176 31.856 18.824 31 18.12 30.344C17.432 29.672 16.36 29.336 14.904 29.336C13.256 29.336 11.816 29.856 10.584 30.896C9.368 31.936 8.424 33.384 7.752 35.24C7.096 37.08 6.768 39.184 6.768 41.552C6.768 42.544 6.864 43.424 7.056 44.192C7.264 44.96 7.52 45.56 7.824 45.992C8.144 46.408 8.448 46.616 8.736 46.616C9.136 46.616 9.44 46.064 9.648 44.96L10.44 40.424C9.816 40.328 9.544 40.288 9.624 40.304C9.144 40.224 8.832 40.08 8.688 39.872C8.544 39.648 8.472 39.368 8.472 39.032C8.472 38.68 8.568 38.4 8.76 38.192C8.968 37.984 9.248 37.88 9.6 37.88C9.76 37.88 9.88 37.888 9.96 37.904C10.344 37.968 10.64 38.008 10.848 38.024C11.056 36.776 11.352 35.104 11.736 33.008C11.832 32.464 12.048 32.08 12.384 31.856C12.736 31.616 13.144 31.496 13.608 31.496C14.136 31.496 14.512 31.6 14.736 31.808C14.976 32 15.096 32.312 15.096 32.744C15.096 33 15.08 33.208 15.048 33.368L14.256 38.024ZM24.3774 47.12C23.3854 47.12 22.5934 46.76 22.0014 46.04C21.4094 45.32 21.1134 44.376 21.1134 43.208C21.1134 41.928 21.4094 40.72 22.0014 39.584C22.5934 38.432 23.3774 37.512 24.3534 36.824C25.3454 36.12 26.3934 35.768 27.4974 35.768C27.8494 35.768 28.0814 35.84 28.1934 35.984C28.3214 36.112 28.4254 36.352 28.5054 36.704C28.8414 36.64 29.1934 36.608 29.5614 36.608C30.3454 36.608 30.7374 36.888 30.7374 37.448C30.7374 37.784 30.6174 38.584 30.3774 39.848C30.0094 41.688 29.8254 42.968 29.8254 43.688C29.8254 43.928 29.8814 44.12 29.9934 44.264C30.1214 44.408 30.2814 44.48 30.4734 44.48C30.7774 44.48 31.1454 44.288 31.5774 43.904C32.0094 43.504 32.5934 42.864 33.3294 41.984C33.5214 41.76 33.7374 41.648 33.9774 41.648C34.1854 41.648 34.3454 41.744 34.4574 41.936C34.5854 42.128 34.6494 42.392 34.6494 42.728C34.6494 43.368 34.4974 43.864 34.1934 44.216C33.5374 45.032 32.8414 45.72 32.1054 46.28C31.3694 46.84 30.6574 47.12 29.9694 47.12C29.4414 47.12 28.9534 46.944 28.5054 46.592C28.0734 46.224 27.7454 45.728 27.5214 45.104C26.6894 46.448 25.6414 47.12 24.3774 47.12ZM25.2414 44.696C25.5934 44.696 25.9294 44.488 26.2494 44.072C26.5694 43.656 26.8014 43.104 26.9454 42.416L27.8334 38C27.1614 38.016 26.5374 38.272 25.9614 38.768C25.4014 39.248 24.9534 39.888 24.6174 40.688C24.2814 41.488 24.1134 42.336 24.1134 43.232C24.1134 43.728 24.2094 44.096 24.4014 44.336C24.6094 44.576 24.8894 44.696 25.2414 44.696ZM34.4029 47.12C33.7949 47.12 33.3629 46.8 33.1069 46.16C32.8669 45.52 32.7469 44.496 32.7469 43.088C32.7469 41.008 33.0429 39.032 33.6349 37.16C33.7789 36.696 34.0109 36.36 34.3309 36.152C34.6669 35.928 35.1309 35.816 35.7229 35.816C36.0429 35.816 36.2669 35.856 36.3949 35.936C36.5229 36.016 36.5869 36.168 36.5869 36.392C36.5869 36.648 36.4669 37.224 36.2269 38.12C36.0669 38.76 35.9389 39.32 35.8429 39.8C35.7469 40.28 35.6669 40.872 35.6029 41.576C36.1309 40.2 36.7229 39.08 37.3789 38.216C38.0349 37.352 38.6749 36.736 39.2989 36.368C39.9389 36 40.5229 35.816 41.0509 35.816C42.0909 35.816 42.6109 36.336 42.6109 37.376C42.6109 38 42.4349 39.128 42.0829 40.76C41.7789 42.152 41.6269 43.072 41.6269 43.52C41.6269 44.16 41.8589 44.48 42.3229 44.48C42.6429 44.48 43.0189 44.288 43.4509 43.904C43.8989 43.504 44.4909 42.864 45.2269 41.984C45.4189 41.76 45.6349 41.648 45.8749 41.648C46.0829 41.648 46.2429 41.744 46.3549 41.936C46.4829 42.128 46.5469 42.392 46.5469 42.728C46.5469 43.368 46.3949 43.864 46.0909 44.216C45.4029 45.064 44.6589 45.76 43.8589 46.304C43.0749 46.848 42.1789 47.12 41.1709 47.12C40.3549 47.12 39.7389 46.888 39.3229 46.424C38.9069 45.944 38.6989 45.256 38.6989 44.36C38.6989 43.912 38.8109 43.112 39.0349 41.96C39.2429 40.952 39.3469 40.256 39.3469 39.872C39.3469 39.616 39.2589 39.488 39.0829 39.488C38.8749 39.488 38.5789 39.76 38.1949 40.304C37.8269 40.832 37.4429 41.536 37.0429 42.416C36.6589 43.296 36.3469 44.224 36.1069 45.2C35.9309 45.952 35.7229 46.464 35.4829 46.736C35.2589 46.992 34.8989 47.12 34.4029 47.12ZM55.3091 41.648C55.5171 41.648 55.6771 41.744 55.7891 41.936C55.9171 42.128 55.9811 42.392 55.9811 42.728C55.9811 43.368 55.8291 43.864 55.5251 44.216C54.8371 45.064 54.0851 45.76 53.2691 46.304C52.4531 46.848 51.5171 47.12 50.4611 47.12C47.1971 47.12 45.5651 44.824 45.5651 40.232C45.5651 39.528 45.5891 38.816 45.6371 38.096H44.7011C44.2211 38.096 43.8931 38.008 43.7171 37.832C43.5571 37.656 43.4771 37.376 43.4771 36.992C43.4771 36.096 43.8371 35.648 44.5571 35.648H45.9251C46.1971 33.888 46.6131 32.28 47.1731 30.824C47.7331 29.368 48.4051 28.208 49.1891 27.344C49.9891 26.48 50.8451 26.048 51.7571 26.048C52.4291 26.048 52.9571 26.344 53.3411 26.936C53.7251 27.528 53.9171 28.272 53.9171 29.168C53.9171 31.648 52.8771 33.808 50.7971 35.648H53.4851C53.7411 35.648 53.9251 35.704 54.0371 35.816C54.1491 35.928 54.2051 36.136 54.2051 36.44C54.2051 37.544 53.3011 38.096 51.4931 38.096H48.5651C48.5331 38.896 48.5171 39.52 48.5171 39.968C48.5171 41.632 48.7091 42.8 49.0931 43.472C49.4931 44.144 50.1171 44.48 50.9651 44.48C51.6531 44.48 52.2611 44.272 52.7891 43.856C53.3171 43.44 53.9411 42.816 54.6611 41.984C54.8531 41.76 55.0691 41.648 55.3091 41.648ZM51.1091 28.352C50.8691 28.352 50.5971 28.656 50.2931 29.264C50.0051 29.856 49.7251 30.688 49.4531 31.76C49.1971 32.816 48.9811 33.992 48.8051 35.288C49.7491 34.472 50.4531 33.56 50.9171 32.552C51.3971 31.528 51.6371 30.6 51.6371 29.768C51.6371 28.824 51.4611 28.352 51.1091 28.352ZM55.731 47.12C55.123 47.12 54.691 46.8 54.435 46.16C54.195 45.52 54.075 44.496 54.075 43.088C54.075 41.008 54.371 39.032 54.963 37.16C55.107 36.696 55.339 36.36 55.659 36.152C55.995 35.928 56.459 35.816 57.051 35.816C57.371 35.816 57.595 35.856 57.723 35.936C57.851 36.016 57.915 36.168 57.915 36.392C57.915 36.648 57.795 37.224 57.555 38.12C57.395 38.76 57.267 39.32 57.171 39.8C57.075 40.28 56.995 40.872 56.931 41.576C57.459 40.2 58.051 39.08 58.707 38.216C59.363 37.352 60.003 36.736 60.627 36.368C61.267 36 61.851 35.816 62.379 35.816C63.419 35.816 63.939 36.336 63.939 37.376C63.939 37.584 63.867 38.088 63.723 38.888C63.595 39.528 63.531 39.928 63.531 40.088C63.531 40.648 63.731 40.928 64.131 40.928C64.579 40.928 65.155 40.576 65.859 39.872C66.067 39.664 66.283 39.56 66.507 39.56C66.715 39.56 66.875 39.656 66.987 39.848C67.115 40.024 67.179 40.264 67.179 40.568C67.179 41.16 67.019 41.624 66.699 41.96C66.251 42.424 65.723 42.824 65.115 43.16C64.523 43.48 63.891 43.64 63.219 43.64C62.371 43.64 61.723 43.424 61.275 42.992C60.843 42.56 60.627 41.976 60.627 41.24C60.627 41 60.651 40.76 60.699 40.52C60.731 40.2 60.747 39.984 60.747 39.872C60.747 39.616 60.659 39.488 60.483 39.488C60.243 39.488 59.923 39.76 59.523 40.304C59.139 40.832 58.755 41.536 58.371 42.416C57.987 43.296 57.675 44.224 57.435 45.2C57.259 45.952 57.051 46.464 56.811 46.736C56.587 46.992 56.227 47.12 55.731 47.12ZM77.2369 41.696C77.4449 41.696 77.6049 41.8 77.7169 42.008C77.8449 42.2 77.9089 42.448 77.9089 42.752C77.9089 43.12 77.8529 43.408 77.7409 43.616C77.6289 43.824 77.4529 44.008 77.2129 44.168L72.6049 47.264C71.9969 50.576 71.1969 53.176 70.2049 55.064C69.2289 56.968 67.9809 57.92 66.4609 57.92C65.6449 57.92 64.9809 57.664 64.4689 57.152C63.9569 56.656 63.7009 56 63.7009 55.184C63.7009 54.432 63.8689 53.664 64.2049 52.88C64.5569 52.096 65.1969 51.192 66.1249 50.168C67.0689 49.16 68.3969 48 70.1089 46.688L70.1809 46.136C70.2929 45.544 70.4209 44.696 70.5649 43.592C70.2449 44.744 69.7969 45.624 69.2209 46.232C68.6449 46.824 68.0369 47.12 67.3969 47.12C66.6769 47.12 66.0849 46.792 65.6209 46.136C65.1729 45.464 64.9489 44.632 64.9489 43.64C64.9489 42.44 65.0289 41.344 65.1889 40.352C65.3489 39.344 65.6129 38.28 65.9809 37.16C66.1409 36.68 66.3649 36.336 66.6529 36.128C66.9409 35.92 67.3969 35.816 68.0209 35.816C68.3729 35.816 68.6129 35.872 68.7409 35.984C68.8849 36.096 68.9569 36.264 68.9569 36.488C68.9569 36.616 68.8689 37.048 68.6929 37.784C68.5329 38.376 68.4049 38.912 68.3089 39.392C68.1809 40.048 68.0689 40.68 67.9729 41.288C67.8769 41.88 67.8289 42.368 67.8289 42.752C67.8289 43.36 67.9969 43.664 68.3329 43.664C68.5729 43.664 68.8689 43.424 69.2209 42.944C69.5889 42.464 69.9729 41.736 70.3729 40.76C70.7889 39.784 71.1889 38.584 71.5729 37.16C71.7009 36.68 71.8929 36.336 72.1489 36.128C72.4209 35.92 72.8209 35.816 73.3489 35.816C73.7169 35.816 73.9729 35.864 74.1169 35.96C74.2609 36.056 74.3329 36.216 74.3329 36.44C74.3329 36.84 74.1249 38.216 73.7089 40.568L73.0849 44.432C74.3169 43.504 75.5169 42.656 76.6849 41.888C76.8929 41.76 77.0769 41.696 77.2369 41.696ZM66.7249 55.592C67.1249 55.592 67.5729 55.128 68.0689 54.2C68.5649 53.272 69.0609 51.728 69.5569 49.568C68.3249 50.608 67.4289 51.552 66.8689 52.4C66.3249 53.264 66.0529 54.016 66.0529 54.656C66.0529 54.928 66.1009 55.152 66.1969 55.328C66.3089 55.504 66.4849 55.592 66.7249 55.592ZM83.1293 47.192C81.0013 47.192 79.2973 46.792 78.0173 45.992C76.7373 45.176 76.0973 43.936 76.0973 42.272C76.0973 41.392 76.2493 40.72 76.5533 40.256C76.8573 39.792 77.3053 39.56 77.8973 39.56C78.3293 39.56 78.6813 39.672 78.9533 39.896C79.2253 40.12 79.3613 40.408 79.3613 40.76C79.3613 41.08 79.3373 41.36 79.2893 41.6C79.2893 41.664 79.2733 41.776 79.2413 41.936C79.2253 42.096 79.2173 42.264 79.2173 42.44C79.2173 43.16 79.5773 43.696 80.2973 44.048C81.0333 44.4 82.0573 44.576 83.3693 44.576C84.7293 44.576 85.7933 44.336 86.5613 43.856C87.3293 43.36 87.7133 42.672 87.7133 41.792C87.7133 41.248 87.5373 40.784 87.1853 40.4C86.8333 40 86.3933 39.672 85.8653 39.416C85.3373 39.144 84.5933 38.816 83.6333 38.432C82.4013 37.952 81.3933 37.496 80.6093 37.064C79.8413 36.632 79.1773 36.048 78.6173 35.312C78.0733 34.56 77.8013 33.632 77.8013 32.528C77.8013 31.376 78.1053 30.352 78.7133 29.456C79.3373 28.56 80.2253 27.864 81.3773 27.368C82.5453 26.872 83.9133 26.624 85.4813 26.624C86.6493 26.624 87.7213 26.8 88.6973 27.152C89.6733 27.488 90.4493 28.008 91.0253 28.712C91.6173 29.416 91.9133 30.28 91.9133 31.304C91.9133 32.312 91.7613 33.072 91.4573 33.584C91.1533 34.096 90.7053 34.352 90.1133 34.352C89.6973 34.352 89.3453 34.224 89.0573 33.968C88.7853 33.712 88.6493 33.408 88.6493 33.056C88.6493 32.752 88.6733 32.472 88.7213 32.216C88.7693 31.736 88.7933 31.432 88.7933 31.304C88.7933 30.632 88.4653 30.12 87.8093 29.768C87.1533 29.416 86.3373 29.24 85.3613 29.24C83.9853 29.24 82.9293 29.496 82.1933 30.008C81.4733 30.504 81.1133 31.208 81.1133 32.12C81.1133 32.728 81.2973 33.248 81.6653 33.68C82.0493 34.112 82.5213 34.472 83.0813 34.76C83.6413 35.048 84.4253 35.392 85.4333 35.792C86.6493 36.288 87.6253 36.736 88.3613 37.136C89.0973 37.536 89.7213 38.08 90.2333 38.768C90.7613 39.456 91.0253 40.304 91.0253 41.312C91.0253 43.2 90.3053 44.656 88.8653 45.68C87.4413 46.688 85.5293 47.192 83.1293 47.192ZM97.6579 47.12C96.0899 47.12 94.8659 46.68 93.9859 45.8C93.1219 44.904 92.6899 43.728 92.6899 42.272C92.6899 40.976 92.9459 39.84 93.4579 38.864C93.9699 37.888 94.6339 37.136 95.4499 36.608C96.2659 36.08 97.1219 35.816 98.0179 35.816C98.8979 35.816 99.5779 36.08 100.058 36.608C100.554 37.12 100.802 37.784 100.802 38.6C100.802 39.272 100.65 39.84 100.346 40.304C100.058 40.768 99.6739 41 99.1939 41C98.8899 41 98.6419 40.928 98.4499 40.784C98.2739 40.64 98.1859 40.44 98.1859 40.184C98.1859 40.072 98.2019 39.944 98.2339 39.8C98.2659 39.656 98.2899 39.552 98.3059 39.488C98.3859 39.248 98.4259 39.024 98.4259 38.816C98.4259 38.608 98.3699 38.448 98.2579 38.336C98.1619 38.224 98.0179 38.168 97.8259 38.168C97.4579 38.168 97.1139 38.336 96.7939 38.672C96.4739 38.992 96.2179 39.432 96.0259 39.992C95.8339 40.552 95.7379 41.168 95.7379 41.84C95.7379 43.696 96.5459 44.624 98.1619 44.624C98.8179 44.624 99.5219 44.408 100.274 43.976C101.042 43.528 101.794 42.864 102.53 41.984C102.722 41.76 102.938 41.648 103.178 41.648C103.386 41.648 103.546 41.744 103.658 41.936C103.786 42.128 103.85 42.392 103.85 42.728C103.85 43.336 103.698 43.832 103.394 44.216C102.642 45.144 101.738 45.864 100.682 46.376C99.6419 46.872 98.6339 47.12 97.6579 47.12ZM104.627 47.12C103.635 47.12 102.843 46.76 102.251 46.04C101.659 45.32 101.363 44.376 101.363 43.208C101.363 41.928 101.659 40.72 102.251 39.584C102.843 38.432 103.627 37.512 104.603 36.824C105.595 36.12 106.643 35.768 107.747 35.768C108.099 35.768 108.331 35.84 108.443 35.984C108.571 36.112 108.675 36.352 108.755 36.704C109.091 36.64 109.443 36.608 109.811 36.608C110.595 36.608 110.987 36.888 110.987 37.448C110.987 37.784 110.867 38.584 110.627 39.848C110.259 41.688 110.075 42.968 110.075 43.688C110.075 43.928 110.131 44.12 110.243 44.264C110.371 44.408 110.531 44.48 110.723 44.48C111.027 44.48 111.395 44.288 111.827 43.904C112.259 43.504 112.843 42.864 113.579 41.984C113.771 41.76 113.987 41.648 114.227 41.648C114.435 41.648 114.595 41.744 114.707 41.936C114.835 42.128 114.899 42.392 114.899 42.728C114.899 43.368 114.747 43.864 114.443 44.216C113.787 45.032 113.091 45.72 112.355 46.28C111.619 46.84 110.907 47.12 110.219 47.12C109.691 47.12 109.203 46.944 108.755 46.592C108.323 46.224 107.995 45.728 107.771 45.104C106.939 46.448 105.891 47.12 104.627 47.12ZM105.491 44.696C105.843 44.696 106.179 44.488 106.499 44.072C106.819 43.656 107.051 43.104 107.195 42.416L108.083 38C107.411 38.016 106.787 38.272 106.211 38.768C105.651 39.248 105.203 39.888 104.867 40.688C104.531 41.488 104.363 42.336 104.363 43.232C104.363 43.728 104.459 44.096 104.651 44.336C104.859 44.576 105.139 44.696 105.491 44.696ZM114.653 47.12C114.045 47.12 113.613 46.8 113.357 46.16C113.117 45.52 112.997 44.496 112.997 43.088C112.997 41.008 113.293 39.032 113.885 37.16C114.029 36.696 114.261 36.36 114.581 36.152C114.917 35.928 115.381 35.816 115.973 35.816C116.293 35.816 116.517 35.856 116.645 35.936C116.773 36.016 116.837 36.168 116.837 36.392C116.837 36.648 116.717 37.224 116.477 38.12C116.317 38.76 116.189 39.32 116.093 39.8C115.997 40.28 115.917 40.872 115.853 41.576C116.381 40.2 116.973 39.08 117.629 38.216C118.285 37.352 118.925 36.736 119.549 36.368C120.189 36 120.773 35.816 121.301 35.816C121.813 35.816 122.197 35.952 122.453 36.224C122.725 36.48 122.861 36.864 122.861 37.376C122.861 37.792 122.773 38.576 122.597 39.728C122.437 40.704 122.309 41.632 122.213 42.512C122.117 43.376 122.069 44.344 122.069 45.416C122.069 46.024 121.941 46.464 121.685 46.736C121.445 46.992 121.045 47.12 120.485 47.12C119.957 47.12 119.573 46.984 119.333 46.712C119.093 46.44 118.973 46.032 118.973 45.488C118.973 44.848 119.085 43.792 119.309 42.32C119.501 41.04 119.597 40.224 119.597 39.872C119.597 39.616 119.509 39.488 119.333 39.488C119.125 39.488 118.829 39.76 118.445 40.304C118.077 40.832 117.693 41.536 117.293 42.416C116.909 43.296 116.597 44.224 116.357 45.2C116.181 45.952 115.973 46.464 115.733 46.736C115.509 46.992 115.149 47.12 114.653 47.12Z" fill="#FEF4DE"/>
</g>
<defs>
<filter id="filter0_d_167_3726" x="110.566" y="26.4834" width="37.5153" height="36.4639" filterUnits="userSpaceOnUse" color-interpolation-filters="sRGB">
<feFlood flood-opacity="0" result="BackgroundImageFix"/>
<feColorMatrix in="SourceAlpha" type="matrix" values="0 0 0 0 0 0 0 0 0 0 0 0 0 0 0 0 0 0 127 0" result="hardAlpha"/>
<feOffset dy="4"/>
<feGaussianBlur stdDeviation="2"/>
<feComposite in2="hardAlpha" operator="out"/>
<feColorMatrix type="matrix" values="0 0 0 0 0 0 0 0 0 0 0 0 0 0 0 0 0 0 0.25 0"/>
<feBlend mode="normal" in2="BackgroundImageFix" result="effect1_dropShadow_167_3726"/>
<feBlend mode="normal" in="SourceGraphic" in2="effect1_dropShadow_167_3726" result="shape"/>
</filter>
<filter id="filter1_d_167_3726" x="0.104004" y="26.0479" width="126.757" height="39.8721" filterUnits="userSpaceOnUse" color-interpolation-filters="sRGB">
<feFlood flood-opacity="0" result="BackgroundImageFix"/>
<feColorMatrix in="SourceAlpha" type="matrix" values="0 0 0 0 0 0 0 0 0 0 0 0 0 0 0 0 0 0 127 0" result="hardAlpha"/>
<feOffset dy="4"/>
<feGaussianBlur stdDeviation="2"/>
<feComposite in2="hardAlpha" operator="out"/>
<feColorMatrix type="matrix" values="0 0 0 0 0 0 0 0 0 0 0 0 0 0 0 0 0 0 0.25 0"/>
<feBlend mode="normal" in2="BackgroundImageFix" result="effect1_dropShadow_167_3726"/>
<feBlend mode="normal" in="SourceGraphic" in2="effect1_dropShadow_167_3726" result="shape"/>
</filter>
<radialGradient id="paint0_radial_167_3726" cx="0" cy="0" r="1" gradientUnits="userSpaceOnUse" gradientTransform="translate(136.106 38.2364) rotate(125.979) scale(12.1732 13.8554)">
<stop stop-color="#FFD6CF"/>
<stop offset="0.609375" stop-color="#FF8879"/>
<stop offset="1" stop-color="#FF5F66"/>
</radialGradient>
</defs>
</svg>
